<mxfile host="app.diagrams.net" agent="Mozilla/5.0 (Windows NT 10.0; Win64; x64) AppleWebKit/537.36 (KHTML, like Gecko) Chrome/133.0.0.0 Safari/537.36" version="26.0.16">
  <diagram name="Página-1" id="fUgZCihx2eRsSx5c1O6x">
    <mxGraphModel dx="1434" dy="772" grid="1" gridSize="10" guides="1" tooltips="1" connect="1" arrows="1" fold="1" page="1" pageScale="1" pageWidth="827" pageHeight="1169" math="0" shadow="0">
      <root>
        <mxCell id="0" />
        <mxCell id="1" parent="0" />
        <mxCell id="Q0xsEToSXDLaV0YUPqp3-14" style="edgeStyle=orthogonalEdgeStyle;rounded=0;orthogonalLoop=1;jettySize=auto;html=1;entryX=0;entryY=0.5;entryDx=0;entryDy=0;" parent="1" source="Q0xsEToSXDLaV0YUPqp3-1" target="Q0xsEToSXDLaV0YUPqp3-13" edge="1">
          <mxGeometry relative="1" as="geometry" />
        </mxCell>
        <mxCell id="Q0xsEToSXDLaV0YUPqp3-1" value="inicio" style="ellipse;whiteSpace=wrap;html=1;" parent="1" vertex="1">
          <mxGeometry x="40" y="40" width="80" height="80" as="geometry" />
        </mxCell>
        <mxCell id="Q0xsEToSXDLaV0YUPqp3-9" value="cadastrar ativos&amp;nbsp;" style="swimlane;fontStyle=0;childLayout=stackLayout;horizontal=1;startSize=30;horizontalStack=0;resizeParent=1;resizeParentMax=0;resizeLast=0;collapsible=1;marginBottom=0;whiteSpace=wrap;html=1;" parent="1" vertex="1">
          <mxGeometry x="340" y="70" width="140" height="240" as="geometry">
            <mxRectangle x="180" y="70" width="60" height="30" as="alternateBounds" />
          </mxGeometry>
        </mxCell>
        <mxCell id="Q0xsEToSXDLaV0YUPqp3-10" value="descrição" style="text;strokeColor=none;fillColor=none;align=left;verticalAlign=middle;spacingLeft=4;spacingRight=4;overflow=hidden;points=[[0,0.5],[1,0.5]];portConstraint=eastwest;rotatable=0;whiteSpace=wrap;html=1;" parent="Q0xsEToSXDLaV0YUPqp3-9" vertex="1">
          <mxGeometry y="30" width="140" height="30" as="geometry" />
        </mxCell>
        <mxCell id="Q0xsEToSXDLaV0YUPqp3-11" value="marca" style="text;strokeColor=none;fillColor=none;align=left;verticalAlign=middle;spacingLeft=4;spacingRight=4;overflow=hidden;points=[[0,0.5],[1,0.5]];portConstraint=eastwest;rotatable=0;whiteSpace=wrap;html=1;" parent="Q0xsEToSXDLaV0YUPqp3-9" vertex="1">
          <mxGeometry y="60" width="140" height="30" as="geometry" />
        </mxCell>
        <mxCell id="Q0xsEToSXDLaV0YUPqp3-12" value="tipo" style="text;strokeColor=none;fillColor=none;align=left;verticalAlign=middle;spacingLeft=4;spacingRight=4;overflow=hidden;points=[[0,0.5],[1,0.5]];portConstraint=eastwest;rotatable=0;whiteSpace=wrap;html=1;" parent="Q0xsEToSXDLaV0YUPqp3-9" vertex="1">
          <mxGeometry y="90" width="140" height="30" as="geometry" />
        </mxCell>
        <mxCell id="Q0xsEToSXDLaV0YUPqp3-16" value="quantidade" style="text;strokeColor=none;fillColor=none;align=left;verticalAlign=middle;spacingLeft=4;spacingRight=4;overflow=hidden;points=[[0,0.5],[1,0.5]];portConstraint=eastwest;rotatable=0;whiteSpace=wrap;html=1;" parent="Q0xsEToSXDLaV0YUPqp3-9" vertex="1">
          <mxGeometry y="120" width="140" height="30" as="geometry" />
        </mxCell>
        <mxCell id="Q0xsEToSXDLaV0YUPqp3-35" value="quantidade Min" style="text;strokeColor=none;fillColor=none;align=left;verticalAlign=middle;spacingLeft=4;spacingRight=4;overflow=hidden;points=[[0,0.5],[1,0.5]];portConstraint=eastwest;rotatable=0;whiteSpace=wrap;html=1;" parent="Q0xsEToSXDLaV0YUPqp3-9" vertex="1">
          <mxGeometry y="150" width="140" height="30" as="geometry" />
        </mxCell>
        <mxCell id="0JpYjlqG7VzCDJg1l220-13" style="edgeStyle=orthogonalEdgeStyle;rounded=0;orthogonalLoop=1;jettySize=auto;html=1;" edge="1" parent="Q0xsEToSXDLaV0YUPqp3-9" source="Q0xsEToSXDLaV0YUPqp3-36">
          <mxGeometry relative="1" as="geometry">
            <mxPoint x="270" y="180" as="targetPoint" />
          </mxGeometry>
        </mxCell>
        <mxCell id="Q0xsEToSXDLaV0YUPqp3-36" value="observação" style="text;strokeColor=none;fillColor=none;align=left;verticalAlign=middle;spacingLeft=4;spacingRight=4;overflow=hidden;points=[[0,0.5],[1,0.5]];portConstraint=eastwest;rotatable=0;whiteSpace=wrap;html=1;" parent="Q0xsEToSXDLaV0YUPqp3-9" vertex="1">
          <mxGeometry y="180" width="140" height="30" as="geometry" />
        </mxCell>
        <mxCell id="0JpYjlqG7VzCDJg1l220-1" value="imagem" style="text;strokeColor=none;fillColor=none;align=left;verticalAlign=middle;spacingLeft=4;spacingRight=4;overflow=hidden;points=[[0,0.5],[1,0.5]];portConstraint=eastwest;rotatable=0;whiteSpace=wrap;html=1;" vertex="1" parent="Q0xsEToSXDLaV0YUPqp3-9">
          <mxGeometry y="210" width="140" height="30" as="geometry" />
        </mxCell>
        <mxCell id="Q0xsEToSXDLaV0YUPqp3-15" style="edgeStyle=orthogonalEdgeStyle;rounded=0;orthogonalLoop=1;jettySize=auto;html=1;entryX=-0.007;entryY=0.075;entryDx=0;entryDy=0;entryPerimeter=0;" parent="1" source="Q0xsEToSXDLaV0YUPqp3-13" edge="1" target="Q0xsEToSXDLaV0YUPqp3-9">
          <mxGeometry relative="1" as="geometry">
            <mxPoint x="320" y="80" as="targetPoint" />
          </mxGeometry>
        </mxCell>
        <mxCell id="Q0xsEToSXDLaV0YUPqp3-13" value="cadastrar ativo&lt;div&gt;(abrir modal)&lt;/div&gt;" style="rounded=0;whiteSpace=wrap;html=1;" parent="1" vertex="1">
          <mxGeometry x="160" y="50" width="120" height="60" as="geometry" />
        </mxCell>
        <mxCell id="Q0xsEToSXDLaV0YUPqp3-21" style="edgeStyle=orthogonalEdgeStyle;rounded=0;orthogonalLoop=1;jettySize=auto;html=1;exitX=0.5;exitY=1;exitDx=0;exitDy=0;entryX=0.5;entryY=0;entryDx=0;entryDy=0;" parent="1" source="Q0xsEToSXDLaV0YUPqp3-17" target="Q0xsEToSXDLaV0YUPqp3-20" edge="1">
          <mxGeometry relative="1" as="geometry" />
        </mxCell>
        <mxCell id="Q0xsEToSXDLaV0YUPqp3-17" value="validação de campos" style="rounded=0;whiteSpace=wrap;html=1;" parent="1" vertex="1">
          <mxGeometry x="610" y="220" width="120" height="60" as="geometry" />
        </mxCell>
        <mxCell id="Q0xsEToSXDLaV0YUPqp3-25" style="edgeStyle=orthogonalEdgeStyle;rounded=0;orthogonalLoop=1;jettySize=auto;html=1;exitX=0;exitY=0.5;exitDx=0;exitDy=0;entryX=1;entryY=0.5;entryDx=0;entryDy=0;" parent="1" source="Q0xsEToSXDLaV0YUPqp3-20" target="Q0xsEToSXDLaV0YUPqp3-22" edge="1">
          <mxGeometry relative="1" as="geometry" />
        </mxCell>
        <mxCell id="Q0xsEToSXDLaV0YUPqp3-29" value="sim" style="edgeLabel;html=1;align=center;verticalAlign=middle;resizable=0;points=[];" parent="Q0xsEToSXDLaV0YUPqp3-25" vertex="1" connectable="0">
          <mxGeometry x="-0.0679" relative="1" as="geometry">
            <mxPoint as="offset" />
          </mxGeometry>
        </mxCell>
        <mxCell id="Q0xsEToSXDLaV0YUPqp3-33" value="" style="edgeStyle=orthogonalEdgeStyle;rounded=0;orthogonalLoop=1;jettySize=auto;html=1;" parent="1" source="Q0xsEToSXDLaV0YUPqp3-20" target="Q0xsEToSXDLaV0YUPqp3-32" edge="1">
          <mxGeometry relative="1" as="geometry" />
        </mxCell>
        <mxCell id="Q0xsEToSXDLaV0YUPqp3-34" value="não" style="edgeLabel;html=1;align=center;verticalAlign=middle;resizable=0;points=[];" parent="Q0xsEToSXDLaV0YUPqp3-33" vertex="1" connectable="0">
          <mxGeometry x="-0.0356" y="-1" relative="1" as="geometry">
            <mxPoint as="offset" />
          </mxGeometry>
        </mxCell>
        <mxCell id="Q0xsEToSXDLaV0YUPqp3-20" value="validação" style="rhombus;whiteSpace=wrap;html=1;" parent="1" vertex="1">
          <mxGeometry x="510" y="420" width="80" height="80" as="geometry" />
        </mxCell>
        <mxCell id="Q0xsEToSXDLaV0YUPqp3-31" value="" style="edgeStyle=orthogonalEdgeStyle;rounded=0;orthogonalLoop=1;jettySize=auto;html=1;" parent="1" source="Q0xsEToSXDLaV0YUPqp3-22" target="Q0xsEToSXDLaV0YUPqp3-30" edge="1">
          <mxGeometry relative="1" as="geometry" />
        </mxCell>
        <mxCell id="Q0xsEToSXDLaV0YUPqp3-22" value="cadastrar" style="whiteSpace=wrap;html=1;" parent="1" vertex="1">
          <mxGeometry x="320" y="430" width="120" height="60" as="geometry" />
        </mxCell>
        <mxCell id="Q0xsEToSXDLaV0YUPqp3-30" value="alerta de cadastro realizado opção para escolher se deseja cadastrar mais 1 ou ver a listagem de ativos&amp;nbsp;&amp;nbsp;" style="whiteSpace=wrap;html=1;" parent="1" vertex="1">
          <mxGeometry x="320" y="540" width="120" height="90" as="geometry" />
        </mxCell>
        <mxCell id="Q0xsEToSXDLaV0YUPqp3-32" value="alerta informando para preencher todos os campos" style="whiteSpace=wrap;html=1;" parent="1" vertex="1">
          <mxGeometry x="670" y="430" width="120" height="60" as="geometry" />
        </mxCell>
        <mxCell id="0JpYjlqG7VzCDJg1l220-4" value="" style="edgeStyle=orthogonalEdgeStyle;rounded=0;orthogonalLoop=1;jettySize=auto;html=1;" edge="1" parent="1" source="0JpYjlqG7VzCDJg1l220-2" target="0JpYjlqG7VzCDJg1l220-3">
          <mxGeometry relative="1" as="geometry" />
        </mxCell>
        <mxCell id="0JpYjlqG7VzCDJg1l220-2" value="função que busca informaçoes no banco&amp;nbsp;" style="rounded=0;whiteSpace=wrap;html=1;" vertex="1" parent="1">
          <mxGeometry x="10" y="170" width="120" height="60" as="geometry" />
        </mxCell>
        <mxCell id="0JpYjlqG7VzCDJg1l220-8" value="" style="edgeStyle=orthogonalEdgeStyle;rounded=0;orthogonalLoop=1;jettySize=auto;html=1;" edge="1" parent="1" source="0JpYjlqG7VzCDJg1l220-3" target="0JpYjlqG7VzCDJg1l220-7">
          <mxGeometry relative="1" as="geometry" />
        </mxCell>
        <mxCell id="0JpYjlqG7VzCDJg1l220-3" value="atraves de um foreach e puxado automaticamente as informaçoes cadastradas no banco" style="rounded=0;whiteSpace=wrap;html=1;" vertex="1" parent="1">
          <mxGeometry x="10" y="270" width="120" height="80" as="geometry" />
        </mxCell>
        <mxCell id="0JpYjlqG7VzCDJg1l220-5" style="edgeStyle=orthogonalEdgeStyle;rounded=0;orthogonalLoop=1;jettySize=auto;html=1;entryX=0.5;entryY=0;entryDx=0;entryDy=0;" edge="1" parent="1" source="Q0xsEToSXDLaV0YUPqp3-11" target="0JpYjlqG7VzCDJg1l220-2">
          <mxGeometry relative="1" as="geometry" />
        </mxCell>
        <mxCell id="0JpYjlqG7VzCDJg1l220-6" style="edgeStyle=orthogonalEdgeStyle;rounded=0;orthogonalLoop=1;jettySize=auto;html=1;entryX=1;entryY=0.5;entryDx=0;entryDy=0;" edge="1" parent="1" source="Q0xsEToSXDLaV0YUPqp3-12" target="0JpYjlqG7VzCDJg1l220-2">
          <mxGeometry relative="1" as="geometry">
            <mxPoint x="210" y="140" as="targetPoint" />
          </mxGeometry>
        </mxCell>
        <mxCell id="0JpYjlqG7VzCDJg1l220-7" value="usuario so escolhe&amp;nbsp; qual dos marcas ou tipos o ativo precisa&amp;nbsp;" style="whiteSpace=wrap;html=1;rounded=0;" vertex="1" parent="1">
          <mxGeometry x="10" y="380" width="120" height="60" as="geometry" />
        </mxCell>
        <mxCell id="0JpYjlqG7VzCDJg1l220-10" style="edgeStyle=orthogonalEdgeStyle;rounded=0;orthogonalLoop=1;jettySize=auto;html=1;entryX=0;entryY=0.5;entryDx=0;entryDy=0;" edge="1" parent="1" source="Q0xsEToSXDLaV0YUPqp3-10" target="Q0xsEToSXDLaV0YUPqp3-17">
          <mxGeometry relative="1" as="geometry" />
        </mxCell>
        <mxCell id="0JpYjlqG7VzCDJg1l220-11" style="edgeStyle=orthogonalEdgeStyle;rounded=0;orthogonalLoop=1;jettySize=auto;html=1;entryX=0;entryY=0.5;entryDx=0;entryDy=0;" edge="1" parent="1" source="Q0xsEToSXDLaV0YUPqp3-16" target="Q0xsEToSXDLaV0YUPqp3-17">
          <mxGeometry relative="1" as="geometry" />
        </mxCell>
        <mxCell id="0JpYjlqG7VzCDJg1l220-12" style="edgeStyle=orthogonalEdgeStyle;rounded=0;orthogonalLoop=1;jettySize=auto;html=1;entryX=0;entryY=0.5;entryDx=0;entryDy=0;" edge="1" parent="1" source="Q0xsEToSXDLaV0YUPqp3-35" target="Q0xsEToSXDLaV0YUPqp3-17">
          <mxGeometry relative="1" as="geometry" />
        </mxCell>
        <mxCell id="0JpYjlqG7VzCDJg1l220-20" value="" style="edgeStyle=orthogonalEdgeStyle;rounded=0;orthogonalLoop=1;jettySize=auto;html=1;" edge="1" parent="1" source="0JpYjlqG7VzCDJg1l220-18" target="0JpYjlqG7VzCDJg1l220-19">
          <mxGeometry relative="1" as="geometry" />
        </mxCell>
        <mxCell id="0JpYjlqG7VzCDJg1l220-18" value="php verifica se tem a pasta para a imagem&amp;nbsp;" style="rounded=0;whiteSpace=wrap;html=1;" vertex="1" parent="1">
          <mxGeometry x="170" y="330" width="120" height="60" as="geometry" />
        </mxCell>
        <mxCell id="0JpYjlqG7VzCDJg1l220-17" style="edgeStyle=orthogonalEdgeStyle;rounded=0;orthogonalLoop=1;jettySize=auto;html=1;" edge="1" parent="1" source="0JpYjlqG7VzCDJg1l220-1" target="0JpYjlqG7VzCDJg1l220-18">
          <mxGeometry relative="1" as="geometry">
            <mxPoint x="190" y="310" as="targetPoint" />
          </mxGeometry>
        </mxCell>
        <mxCell id="0JpYjlqG7VzCDJg1l220-25" style="edgeStyle=orthogonalEdgeStyle;rounded=0;orthogonalLoop=1;jettySize=auto;html=1;entryX=0.5;entryY=0;entryDx=0;entryDy=0;exitX=0;exitY=0.5;exitDx=0;exitDy=0;" edge="1" parent="1" source="0JpYjlqG7VzCDJg1l220-19" target="0JpYjlqG7VzCDJg1l220-24">
          <mxGeometry relative="1" as="geometry" />
        </mxCell>
        <mxCell id="0JpYjlqG7VzCDJg1l220-28" value="&lt;font style=&quot;font-size: 14px;&quot;&gt;não&lt;/font&gt;" style="edgeLabel;html=1;align=center;verticalAlign=middle;resizable=0;points=[];" vertex="1" connectable="0" parent="0JpYjlqG7VzCDJg1l220-25">
          <mxGeometry x="0.0222" y="-1" relative="1" as="geometry">
            <mxPoint as="offset" />
          </mxGeometry>
        </mxCell>
        <mxCell id="0JpYjlqG7VzCDJg1l220-26" style="edgeStyle=orthogonalEdgeStyle;rounded=0;orthogonalLoop=1;jettySize=auto;html=1;entryX=0.5;entryY=0;entryDx=0;entryDy=0;exitX=1;exitY=0.5;exitDx=0;exitDy=0;" edge="1" parent="1" source="0JpYjlqG7VzCDJg1l220-19" target="0JpYjlqG7VzCDJg1l220-23">
          <mxGeometry relative="1" as="geometry" />
        </mxCell>
        <mxCell id="0JpYjlqG7VzCDJg1l220-29" value="&lt;font style=&quot;font-size: 14px;&quot;&gt;sim&lt;/font&gt;" style="edgeLabel;html=1;align=center;verticalAlign=middle;resizable=0;points=[];" vertex="1" connectable="0" parent="0JpYjlqG7VzCDJg1l220-26">
          <mxGeometry x="-0.0074" relative="1" as="geometry">
            <mxPoint y="8" as="offset" />
          </mxGeometry>
        </mxCell>
        <mxCell id="0JpYjlqG7VzCDJg1l220-19" value="tem?" style="rhombus;whiteSpace=wrap;html=1;rounded=0;" vertex="1" parent="1">
          <mxGeometry x="120" y="480" width="80" height="90" as="geometry" />
        </mxCell>
        <mxCell id="0JpYjlqG7VzCDJg1l220-23" value="ele armazena direto&amp;nbsp;" style="rounded=0;whiteSpace=wrap;html=1;" vertex="1" parent="1">
          <mxGeometry x="200" y="620" width="80" height="60" as="geometry" />
        </mxCell>
        <mxCell id="0JpYjlqG7VzCDJg1l220-24" value="então o php cria e armazena na pasta criada&amp;nbsp;" style="rounded=0;whiteSpace=wrap;html=1;" vertex="1" parent="1">
          <mxGeometry x="40" y="620" width="80" height="60" as="geometry" />
        </mxCell>
      </root>
    </mxGraphModel>
  </diagram>
</mxfile>
